<svg xmlns="http://www.w3.org/2000/svg" xmlns:xlink="http://www.w3.org/1999/xlink" width="120px" height="71px" viewBox="0 0 120 71" version="1.1">
    <!-- Generator: Sketch 40.3 (33839) - http://www.bohemiancoding.com/sketch -->
    <title>Page 1</title>
    <desc>Created with Sketch.</desc>
    <defs>
        <polygon id="path-1" points="0.000194594595 70.3545455 119.481276 70.3545455 119.481276 0.501518182 0.000194594595 0.501518182"/>
    </defs>
    <g id="SHED-DESIGN---HOME" stroke="none" stroke-width="1" fill="none" fill-rule="evenodd">
        <g id="Desktop---HOME-layout-default" transform="translate(-659.000000, -1714.000000)">
            <g id="Page-1" transform="translate(659.000000, 1714.000000)">
                <g id="Group-3" transform="translate(0.000000, 0.143936)">
                    <mask id="mask-2" fill="white">
                        <use xlink:href="#path-1"/>
                    </mask>
                    <g id="Clip-2"/>
                    <path d="M75.2226811,44.7703409 C75.2226811,44.7703409 77.4598703,45.13115 78.1247351,46.6957318 L77.7621405,47.41735 L72.8648432,48.0795864 L64.3091676,49.6435227 L52.4881946,47.2972955 L51.7630054,48.9819318 L56.6097081,51.2539318 L60.5963027,52.3834773 L65.7368432,52.2789136 L65.1770595,53.32455 L61.7496,55.3035136 L58.7716541,55.6643227 L52.0691676,54.1584773 L50.7854919,55.0588864 L50.8561946,56.9842773 L54.7253838,57.7962591 L63.4659243,58.7076409 L69.0014919,56.9552318 L71.2244108,57.6381227 L66.344627,61.7980773 L57.9608432,62.0110773 L48.9816,60.4135773 L48.5281946,62.0678773 L52.3980324,64.3644045 L58.2151135,65.2970864 L58.9662486,65.82055 L58.5828973,66.63705 L56.1504649,66.6777136 L52.0737081,67.0720864 L36.6183568,62.2511864 L26.3314378,52.6971682 L22.9195459,45.6914045 L27.8453838,37.5025227 L36.6871135,31.0324864 L46.9506811,30.7355773 L51.9238703,32.2756318 L56.2373838,36.5278864 L59.3560865,39.0993773 C59.3560865,39.0993773 59.8043027,40.55875 59.3813838,41.0402591 L54.0605189,39.5963773 L50.984627,37.3347045 L49.018573,37.6471045 L50.8023568,41.0357409 L54.5444108,43.0256773 L62.8276541,45.0711227 L64.0977081,45.6126591 L70.6879784,45.0110955 L73.0464649,44.7703409 L75.2226811,44.7703409 Z M15.2168432,11.6740136 L17.2043027,7.04029545 L21.8363027,4.35907727 L46.6192216,26.9570864 L39.6053838,27.8394227 L15.2168432,11.6740136 Z M12.5963027,36.2697045 L11.4676541,47.9014409 L8.00127568,48.2222318 L6.14678919,43.3290409 L7.43695135,38.5158864 L9.69424865,33.0605045 L13.160627,30.2527773 L17.6752216,32.6190136 L12.5963027,36.2697045 Z M85.1243027,30.5625955 L104.406032,16.1999409 L107.872411,15.7184318 L110.855546,16.3606591 L113.032411,18.8475955 L89.0077622,37.2604773 L88.3630054,36.1748227 L91.9908973,31.8031591 L106.66333,20.6122682 L106.421384,18.8475955 L84.6546811,34.7309409 L83.2030054,34.8916591 L85.1243027,30.5625955 Z M86.7387892,43.1650955 L119.481276,18.6868773 L108.356303,8.73913182 L66.3932757,39.4743864 L64.6302486,39.1852227 L59.1621405,33.4548773 L22.6951135,0.501195455 L17.2043027,2.25295909 L12.3394378,7.63217727 L10.9999784,13.4638591 L34.3584649,27.6141591 L23.6291676,31.6663227 L18.8953297,29.1096773 L10.762573,24.3765591 L3.62808649,32.1981773 L0.000194594595,47.9014409 L3.9803027,54.3650227 L17.6752216,53.0115045 L31.6711135,64.7006864 L50.3560865,70.3548682 L56.1096,69.29955 L61.3617081,69.4989955 L63.1454919,67.5626318 L62.4365189,65.7643955 L67.1612757,64.9659682 L76.5530595,59.1897955 L75.5852757,55.1789409 L71.2853838,54.1313682 L67.474573,54.8846136 L69.7396541,51.62765 L75.3037622,51.1280682 L83.1232216,50.3257682 L82.9221405,46.1541955 L78.3666811,41.8219045 L73.2073297,41.5011136 L79.978573,37.2604773 L86.7387892,43.1650955 Z" id="Fill-1" fill="#010202" mask="url(#mask-2)"/>
                </g>
                <path d="M25.4283892,11.4983855 C25.8000649,11.7798036 26.0134703,12.1354491 25.9810378,12.6292218 L27.0539027,12.7028036 C27.1635243,11.7810945 26.7217946,11.0911036 26.0614703,10.5921673 C25.4290378,10.1138855 24.2737946,9.84021273 23.6387676,10.6722036 C22.8506595,11.7049309 23.7775784,12.52724 24.3840649,13.1636582 C24.618227,13.4140945 24.9295784,13.8517127 24.6435243,14.2267218 C24.4158486,14.5249218 23.8891459,14.2641582 23.6660108,14.0950491 C23.1308757,13.6909945 22.9855784,13.2004491 23.2379027,12.4762491 L22.2610378,12.15094 C21.7064432,13.2624127 22.1585514,14.3409673 22.986227,14.9670582 C23.6880649,15.4976218 24.8971459,15.6906127 25.5756324,14.8018218 C26.2852541,13.8717218 25.7864432,12.96034 25.1332541,12.3368309 C24.9198486,12.1354491 24.3159568,11.5816491 24.5202811,11.3144309 C24.6999568,11.0781945 25.2513081,11.3647764 25.4283892,11.4983855" id="Fill-4" fill="#010202"/>
                <path d="M22.3032649,12.24963 C21.7707243,13.3946664 22.3590486,14.3912482 23.0355892,14.9024482 C23.3904,15.1709573 23.859373,15.3329664 24.2900757,15.3361936 L24.3036973,15.3361936 C24.6546162,15.3361936 25.1443459,15.2335664 25.5108324,14.7527027 C26.2580757,13.7741936 25.5601297,12.8550664 25.0768865,12.3948573 L25.0554811,12.3742027 C24.7824,12.1173118 24.2141838,11.5815845 24.4554811,11.2653118 C24.6954811,10.9509755 25.3324541,11.3246936 25.4771027,11.4337755 L25.4777514,11.4337755 C25.8786162,11.7377845 26.0719135,12.1044027 26.0647784,12.5542845 L26.9813189,12.6168936 C27.0468324,11.8513845 26.7212108,11.19173 26.0122378,10.6560027 C25.6807784,10.4055664 25.2448865,10.2429118 24.8466162,10.2209664 C24.5132108,10.2009573 24.0435892,10.2745391 23.7036973,10.7211936 C23.0109405,11.6280573 23.7030486,12.3432209 24.3140757,12.9744755 L24.4431568,13.1080845 C24.8537514,13.5469936 24.9478054,13.9613755 24.7084541,14.2757118 C24.6384,14.3667209 24.5417514,14.4215845 24.4204541,14.4383664 C24.1266162,14.4777391 23.7782919,14.2815209 23.6167784,14.15953 C23.0615351,13.7399845 22.9110486,13.2339482 23.1354811,12.5271755 L22.3032649,12.24963 Z M24.3036973,15.4975573 C24.2991568,15.4975573 24.2939676,15.4975573 24.289427,15.4969118 C23.8172108,15.4936845 23.3248865,15.32393 22.9376432,15.0315391 C22.1988324,14.4732209 21.5599135,13.3740118 22.1884541,12.11473 L22.2202378,12.0521209 L23.3411027,12.4251936 L23.3145081,12.5026482 C23.0777514,13.1829573 23.1971027,13.6399391 23.715373,14.0310845 C23.8684541,14.1466209 24.1778595,14.3099209 24.3984,14.2782936 C24.4762378,14.2673209 24.5352649,14.2350482 24.5787243,14.1776027 C24.8180757,13.8645573 24.5728865,13.4837391 24.3244541,13.2184573 L24.1973189,13.0861391 C23.6070486,12.4761845 22.7981838,11.6403209 23.5739676,10.6230845 C23.9573189,10.1215664 24.4827243,10.0389482 24.8556973,10.0602482 C25.2844541,10.0834845 25.7540757,10.2584027 26.1108324,10.5275573 C26.8918054,11.1181482 27.2362378,11.8533209 27.1344,12.7124209 L27.1253189,12.7885845 L25.8948324,12.70403 L25.9000216,12.6239936 C25.9285622,12.1896027 25.7631568,11.8526755 25.3791568,11.5628664 C25.1994811,11.4266755 24.7116973,11.1956027 24.5845622,11.3627755 C24.4827243,11.4963845 24.6786162,11.7971664 25.1670486,12.2573755 L25.1891027,12.27803 C25.7112649,12.7763209 26.4630486,13.7722573 25.6405622,14.8501664 C25.2332108,15.3833118 24.6915892,15.4975573 24.3036973,15.4975573 L24.3036973,15.4975573 Z" id="Fill-6" fill="#FCF9F2"/>
                <polygon id="Fill-8" fill="#010202" points="31.2678486 15.0881455 30.1638486 16.5339636 28.5766054 15.3340636 29.6806054 13.8882455 28.9249297 13.3170182 26.0786595 17.0451636 26.8349838 17.6163909 27.9389838 16.1699273 29.526227 17.3698273 28.422227 18.8156455 29.1779027 19.3875182 32.024173 15.6600182"/>
                <polygon id="Fill-10" fill="#010202" points="34.1164541 20.9274436 34.729427 20.1238527 33.1836973 18.95558 33.6319135 18.3682164 35.8412108 20.0380073 36.4541838 19.2344164 33.5184 17.0153436 30.7824 20.6001982 33.7175351 22.8192709 34.3311568 22.01568 32.1225081 20.3458891 32.5707243 19.7585255"/>
                <path d="M38.7554595,23.9404255 C38.291027,24.5484436 37.6462703,24.5826527 37.1163243,24.1824709 L36.5305946,23.7390436 L37.9673514,21.8568982 L38.5530811,22.3003255 C39.083027,22.7005073 39.2231351,23.3278891 38.7554595,23.9404255 M39.1368649,21.5354618 L37.859027,20.5698618 L35.2553514,23.9810891 L36.5325405,24.9466891 C37.4393514,25.6315164 38.6588108,25.4959709 39.4462703,24.4632436 C40.2382703,23.4259982 40.0423784,22.2209345 39.1368649,21.5354618" id="Fill-12" fill="#010202"/>
                <path d="M20.2932324,7.45306364 C19.3183135,7.45306364 18.5282595,8.23922727 18.5282595,9.20934545 C18.5282595,10.1794636 19.3183135,10.9656273 20.2932324,10.9656273 C21.2681514,10.9656273 22.0582054,10.1794636 22.0582054,9.20934545 C22.0582054,8.23922727 21.2681514,7.45306364 20.2932324,7.45306364" id="Fill-14" fill="#010202"/>
            </g>
        </g>
    </g>
</svg>